# xmcd
#
# Track frame offsets: 
#        150
#        13277
#        36017
#        50731
#        63248
#        80048
#        98157
#        114323
#        124167
#        128813
#        143723
#        160404
#        169459
#        182526
#        202282
#        215489
#        228629
#        245450
#
# Disc length: 3434 seconds
#
# Revision: 0
# Processed by: cddbd v1.5.2PL0 Copyright (c) Steve Scherf et al.
# Submitted via: ExactAudioCopy v0.99pb3
#
DISCID=0d0d6812
DTITLE=Various Artist - The Blues Of Henry Gray and Cousin Joe
DYEAR=2004
DGENRE=Blues
TTITLE0=Henry Gray - Blues Dance
TTITLE1=Henry Gray - Cold Chills
TTITLE2=Henry Gray - Come On Woman
TTITLE3=Henry Gray - Bright Lights, Big City
TTITLE4=Henry Gray - Ain't No Use
TTITLE5=Henry Gray - Shake A Hand
TTITLE6=Henry Gray - Boogie Woogie
TTITLE7=Henry Gray - Blueberry Hill
TTITLE8=Henry Gray - I'm In Love Again
TTITLE9=Cousin Joe - I Don't Know My Name
TTITLE10=Cousin Joe - Everything That's Made Of Wood Once Was A Tree
TTITLE11=Cousin Joe - Come Down People
TTITLE12=Cousin Joe - Married Life
TTITLE13=Cousin Joe - Life Is A One Way Ticket
TTITLE14=Cousin Joe - Beggin' Woman
TTITLE15=Cousin Joe - Hard Work
TTITLE16=Cousin Joe - I Wouldn't Give A Blind Sow An Acorn
TTITLE17=Cousin Joe - Prodigal Son
EXTD=
EXTT0=
EXTT1=
EXTT2=
EXTT3=
EXTT4=
EXTT5=
EXTT6=
EXTT7=
EXTT8=
EXTT9=
EXTT10=
EXTT11=
EXTT12=
EXTT13=
EXTT14=
EXTT15=
EXTT16=
EXTT17=
PLAYORDER=
